<mxfile host="Electron" agent="Mozilla/5.0 (Windows NT 10.0; Win64; x64) AppleWebKit/537.36 (KHTML, like Gecko) draw.io/28.1.2 Chrome/138.0.7204.243 Electron/37.4.0 Safari/537.36" version="28.1.2">
  <diagram name="PÃ¡gina-1" id="pkWzjknB2smq6M3AF2fZ">
    <mxGraphModel dx="1163" dy="705" grid="1" gridSize="10" guides="1" tooltips="1" connect="1" arrows="1" fold="1" page="1" pageScale="1" pageWidth="3300" pageHeight="4681" math="0" shadow="0">
      <root>
        <mxCell id="0" />
        <mxCell id="1" parent="0" />
        <mxCell id="uJpgHnKQdFC738ld5ybK-47" value="" style="rounded=1;whiteSpace=wrap;html=1;fillColor=none;" parent="1" vertex="1">
          <mxGeometry x="771" y="208" width="630" height="580" as="geometry" />
        </mxCell>
        <mxCell id="uJpgHnKQdFC738ld5ybK-36" value="" style="rounded=1;whiteSpace=wrap;html=1;fillColor=none;" parent="1" vertex="1">
          <mxGeometry x="67" y="208" width="630" height="580" as="geometry" />
        </mxCell>
        <mxCell id="uJpgHnKQdFC738ld5ybK-1" value="&lt;font style=&quot;&quot;&gt;&lt;b style=&quot;&quot;&gt;&lt;font style=&quot;font-size: 30px;&quot;&gt;Integration Model &lt;/font&gt;&lt;/b&gt;&lt;font style=&quot;font-size: 16px;&quot;&gt;(How to table are related)&lt;/font&gt;&lt;/font&gt;" style="text;html=1;align=center;verticalAlign=middle;whiteSpace=wrap;rounded=0;" parent="1" vertex="1">
          <mxGeometry x="67" y="100" width="523" height="60" as="geometry" />
        </mxCell>
        <mxCell id="uJpgHnKQdFC738ld5ybK-2" value="crm_cust_info" style="swimlane;fontStyle=0;childLayout=stackLayout;horizontal=1;startSize=30;horizontalStack=0;resizeParent=1;resizeParentMax=0;resizeLast=0;collapsible=1;marginBottom=0;whiteSpace=wrap;html=1;rounded=1;fillColor=#dae8fc;strokeColor=#6c8ebf;fontSize=20;" parent="1" vertex="1">
          <mxGeometry x="374" y="521" width="202" height="140" as="geometry" />
        </mxCell>
        <mxCell id="uJpgHnKQdFC738ld5ybK-3" value="cst_id" style="text;strokeColor=none;fillColor=none;align=left;verticalAlign=middle;spacingLeft=4;spacingRight=4;overflow=hidden;points=[[0,0.5],[1,0.5]];portConstraint=eastwest;rotatable=0;whiteSpace=wrap;html=1;fontSize=20;" parent="uJpgHnKQdFC738ld5ybK-2" vertex="1">
          <mxGeometry y="30" width="202" height="40" as="geometry" />
        </mxCell>
        <mxCell id="uJpgHnKQdFC738ld5ybK-4" value="cst_key" style="text;strokeColor=none;fillColor=none;align=left;verticalAlign=middle;spacingLeft=4;spacingRight=4;overflow=hidden;points=[[0,0.5],[1,0.5]];portConstraint=eastwest;rotatable=0;whiteSpace=wrap;html=1;fontSize=20;" parent="uJpgHnKQdFC738ld5ybK-2" vertex="1">
          <mxGeometry y="70" width="202" height="40" as="geometry" />
        </mxCell>
        <mxCell id="LYgC1uO_ZYgI7PG8ounG-3" value="&lt;b style=&quot;&quot;&gt;&lt;font style=&quot;font-size: 18px;&quot;&gt;CUSTOMER&lt;/font&gt;&lt;/b&gt;" style="text;html=1;strokeColor=#82b366;fillColor=#d5e8d4;align=center;verticalAlign=middle;whiteSpace=wrap;overflow=hidden;" vertex="1" parent="uJpgHnKQdFC738ld5ybK-2">
          <mxGeometry y="110" width="202" height="30" as="geometry" />
        </mxCell>
        <mxCell id="uJpgHnKQdFC738ld5ybK-6" value="&lt;font style=&quot;font-size: 20px;&quot;&gt;Customer information&lt;/font&gt;" style="text;html=1;align=center;verticalAlign=middle;whiteSpace=wrap;rounded=0;" parent="1" vertex="1">
          <mxGeometry x="375" y="491" width="205" height="30" as="geometry" />
        </mxCell>
        <mxCell id="uJpgHnKQdFC738ld5ybK-7" value="crm_prd_info" style="swimlane;fontStyle=0;childLayout=stackLayout;horizontal=1;startSize=30;horizontalStack=0;resizeParent=1;resizeParentMax=0;resizeLast=0;collapsible=1;marginBottom=0;whiteSpace=wrap;html=1;rounded=1;fillColor=#dae8fc;strokeColor=#6c8ebf;fontSize=20;" parent="1" vertex="1">
          <mxGeometry x="374" y="349" width="202" height="100" as="geometry" />
        </mxCell>
        <mxCell id="uJpgHnKQdFC738ld5ybK-8" value="prd_key" style="text;strokeColor=none;fillColor=none;align=left;verticalAlign=middle;spacingLeft=4;spacingRight=4;overflow=hidden;points=[[0,0.5],[1,0.5]];portConstraint=eastwest;rotatable=0;whiteSpace=wrap;html=1;fontSize=20;" parent="uJpgHnKQdFC738ld5ybK-7" vertex="1">
          <mxGeometry y="30" width="202" height="40" as="geometry" />
        </mxCell>
        <mxCell id="LYgC1uO_ZYgI7PG8ounG-1" value="&lt;b style=&quot;&quot;&gt;&lt;font style=&quot;font-size: 18px;&quot;&gt;PRODUCT&lt;/font&gt;&lt;/b&gt;" style="text;html=1;strokeColor=#b85450;fillColor=#f8cecc;align=center;verticalAlign=middle;whiteSpace=wrap;overflow=hidden;" vertex="1" parent="uJpgHnKQdFC738ld5ybK-7">
          <mxGeometry y="70" width="202" height="30" as="geometry" />
        </mxCell>
        <mxCell id="uJpgHnKQdFC738ld5ybK-11" value="&lt;font style=&quot;font-size: 16px;&quot;&gt;Current &amp;amp; History product&amp;nbsp;&lt;/font&gt;&lt;div&gt;&lt;font style=&quot;font-size: 16px;&quot;&gt;Information&lt;/font&gt;&lt;/div&gt;" style="text;html=1;align=center;verticalAlign=middle;whiteSpace=wrap;rounded=0;" parent="1" vertex="1">
          <mxGeometry x="364" y="299" width="216" height="40" as="geometry" />
        </mxCell>
        <mxCell id="uJpgHnKQdFC738ld5ybK-12" value="crm_sales_details" style="swimlane;fontStyle=0;childLayout=stackLayout;horizontal=1;startSize=30;horizontalStack=0;resizeParent=1;resizeParentMax=0;resizeLast=0;collapsible=1;marginBottom=0;whiteSpace=wrap;html=1;rounded=1;fillColor=#dae8fc;strokeColor=#6c8ebf;fontSize=20;" parent="1" vertex="1">
          <mxGeometry x="114" y="406" width="202" height="140" as="geometry" />
        </mxCell>
        <mxCell id="uJpgHnKQdFC738ld5ybK-13" value="prd_key" style="text;strokeColor=none;fillColor=none;align=left;verticalAlign=middle;spacingLeft=4;spacingRight=4;overflow=hidden;points=[[0,0.5],[1,0.5]];portConstraint=eastwest;rotatable=0;whiteSpace=wrap;html=1;fontSize=20;" parent="uJpgHnKQdFC738ld5ybK-12" vertex="1">
          <mxGeometry y="30" width="202" height="40" as="geometry" />
        </mxCell>
        <mxCell id="uJpgHnKQdFC738ld5ybK-14" value="cst_id" style="text;strokeColor=none;fillColor=none;align=left;verticalAlign=middle;spacingLeft=4;spacingRight=4;overflow=hidden;points=[[0,0.5],[1,0.5]];portConstraint=eastwest;rotatable=0;whiteSpace=wrap;html=1;fontSize=20;" parent="uJpgHnKQdFC738ld5ybK-12" vertex="1">
          <mxGeometry y="70" width="202" height="40" as="geometry" />
        </mxCell>
        <mxCell id="LYgC1uO_ZYgI7PG8ounG-7" value="&lt;b style=&quot;&quot;&gt;&lt;font style=&quot;font-size: 18px;&quot;&gt;SALE&lt;/font&gt;&lt;/b&gt;" style="text;html=1;strokeColor=#9673a6;fillColor=#e1d5e7;align=center;verticalAlign=middle;whiteSpace=wrap;overflow=hidden;" vertex="1" parent="uJpgHnKQdFC738ld5ybK-12">
          <mxGeometry y="110" width="202" height="30" as="geometry" />
        </mxCell>
        <mxCell id="uJpgHnKQdFC738ld5ybK-16" value="&lt;font style=&quot;font-size: 16px;&quot;&gt;Transactional Records&amp;nbsp;&lt;/font&gt;&lt;div&gt;&lt;font style=&quot;font-size: 16px;&quot;&gt;about Sales &amp;amp; Orders&lt;/font&gt;&lt;/div&gt;" style="text;html=1;align=center;verticalAlign=middle;whiteSpace=wrap;rounded=0;" parent="1" vertex="1">
          <mxGeometry x="96" y="365" width="220" height="30" as="geometry" />
        </mxCell>
        <mxCell id="uJpgHnKQdFC738ld5ybK-18" style="edgeStyle=orthogonalEdgeStyle;rounded=0;orthogonalLoop=1;jettySize=auto;html=1;entryX=0;entryY=0.5;entryDx=0;entryDy=0;" parent="1" source="uJpgHnKQdFC738ld5ybK-13" target="uJpgHnKQdFC738ld5ybK-8" edge="1">
          <mxGeometry relative="1" as="geometry" />
        </mxCell>
        <mxCell id="uJpgHnKQdFC738ld5ybK-17" style="edgeStyle=orthogonalEdgeStyle;rounded=0;orthogonalLoop=1;jettySize=auto;html=1;entryX=0;entryY=0.5;entryDx=0;entryDy=0;" parent="1" source="uJpgHnKQdFC738ld5ybK-14" target="uJpgHnKQdFC738ld5ybK-3" edge="1">
          <mxGeometry relative="1" as="geometry">
            <mxPoint x="361" y="466" as="targetPoint" />
          </mxGeometry>
        </mxCell>
        <mxCell id="uJpgHnKQdFC738ld5ybK-21" value="erp_loc_a101" style="swimlane;fontStyle=0;childLayout=stackLayout;horizontal=1;startSize=30;horizontalStack=0;resizeParent=1;resizeParentMax=0;resizeLast=0;collapsible=1;marginBottom=0;whiteSpace=wrap;html=1;rounded=1;fillColor=#ffe6cc;strokeColor=#d79b00;fontSize=20;" parent="1" vertex="1">
          <mxGeometry x="1008" y="615" width="202" height="100" as="geometry" />
        </mxCell>
        <mxCell id="uJpgHnKQdFC738ld5ybK-22" value="cid" style="text;strokeColor=none;fillColor=none;align=left;verticalAlign=middle;spacingLeft=4;spacingRight=4;overflow=hidden;points=[[0,0.5],[1,0.5]];portConstraint=eastwest;rotatable=0;whiteSpace=wrap;html=1;fontSize=20;" parent="uJpgHnKQdFC738ld5ybK-21" vertex="1">
          <mxGeometry y="30" width="202" height="40" as="geometry" />
        </mxCell>
        <mxCell id="LYgC1uO_ZYgI7PG8ounG-6" value="&lt;b style=&quot;&quot;&gt;&lt;font style=&quot;font-size: 18px;&quot;&gt;CUSTOMER&lt;/font&gt;&lt;/b&gt;" style="text;html=1;strokeColor=#82b366;fillColor=#d5e8d4;align=center;verticalAlign=middle;whiteSpace=wrap;overflow=hidden;" vertex="1" parent="uJpgHnKQdFC738ld5ybK-21">
          <mxGeometry y="70" width="202" height="30" as="geometry" />
        </mxCell>
        <mxCell id="uJpgHnKQdFC738ld5ybK-24" value="&lt;span style=&quot;font-size: 16px;&quot;&gt;Location of Customers (Country)&lt;/span&gt;" style="text;html=1;align=center;verticalAlign=middle;whiteSpace=wrap;rounded=0;" parent="1" vertex="1">
          <mxGeometry x="998" y="566" width="216" height="40" as="geometry" />
        </mxCell>
        <mxCell id="uJpgHnKQdFC738ld5ybK-26" value="erp_cust_az12" style="swimlane;fontStyle=0;childLayout=stackLayout;horizontal=1;startSize=30;horizontalStack=0;resizeParent=1;resizeParentMax=0;resizeLast=0;collapsible=1;marginBottom=0;whiteSpace=wrap;html=1;rounded=1;fillColor=#ffe6cc;strokeColor=#d79b00;fontSize=20;" parent="1" vertex="1">
          <mxGeometry x="1006" y="476" width="202" height="100" as="geometry" />
        </mxCell>
        <mxCell id="uJpgHnKQdFC738ld5ybK-27" value="cid" style="text;strokeColor=none;fillColor=none;align=left;verticalAlign=middle;spacingLeft=4;spacingRight=4;overflow=hidden;points=[[0,0.5],[1,0.5]];portConstraint=eastwest;rotatable=0;whiteSpace=wrap;html=1;fontSize=20;" parent="uJpgHnKQdFC738ld5ybK-26" vertex="1">
          <mxGeometry y="30" width="202" height="40" as="geometry" />
        </mxCell>
        <mxCell id="LYgC1uO_ZYgI7PG8ounG-5" value="&lt;b style=&quot;&quot;&gt;&lt;font style=&quot;font-size: 18px;&quot;&gt;CUSTOMER&lt;/font&gt;&lt;/b&gt;" style="text;html=1;strokeColor=#82b366;fillColor=#d5e8d4;align=center;verticalAlign=middle;whiteSpace=wrap;overflow=hidden;" vertex="1" parent="uJpgHnKQdFC738ld5ybK-26">
          <mxGeometry y="70" width="202" height="30" as="geometry" />
        </mxCell>
        <mxCell id="uJpgHnKQdFC738ld5ybK-29" value="&lt;span style=&quot;font-size: 16px;&quot;&gt;Extra Customer Information (Birthdates )&lt;/span&gt;" style="text;html=1;align=center;verticalAlign=middle;whiteSpace=wrap;rounded=0;" parent="1" vertex="1">
          <mxGeometry x="996" y="426" width="216" height="40" as="geometry" />
        </mxCell>
        <mxCell id="uJpgHnKQdFC738ld5ybK-31" value="erp_px_cat_g1v2" style="swimlane;fontStyle=0;childLayout=stackLayout;horizontal=1;startSize=30;horizontalStack=0;resizeParent=1;resizeParentMax=0;resizeLast=0;collapsible=1;marginBottom=0;whiteSpace=wrap;html=1;rounded=1;fillColor=#ffe6cc;strokeColor=#d79b00;fontSize=20;" parent="1" vertex="1">
          <mxGeometry x="1001" y="288" width="202" height="100" as="geometry" />
        </mxCell>
        <mxCell id="uJpgHnKQdFC738ld5ybK-32" value="id" style="text;strokeColor=none;fillColor=none;align=left;verticalAlign=middle;spacingLeft=4;spacingRight=4;overflow=hidden;points=[[0,0.5],[1,0.5]];portConstraint=eastwest;rotatable=0;whiteSpace=wrap;html=1;fontSize=20;" parent="uJpgHnKQdFC738ld5ybK-31" vertex="1">
          <mxGeometry y="30" width="202" height="40" as="geometry" />
        </mxCell>
        <mxCell id="LYgC1uO_ZYgI7PG8ounG-2" value="&lt;b style=&quot;&quot;&gt;&lt;font style=&quot;font-size: 18px;&quot;&gt;PRODUCT&lt;/font&gt;&lt;/b&gt;" style="text;html=1;strokeColor=#b85450;fillColor=#f8cecc;align=center;verticalAlign=middle;whiteSpace=wrap;overflow=hidden;" vertex="1" parent="uJpgHnKQdFC738ld5ybK-31">
          <mxGeometry y="70" width="202" height="30" as="geometry" />
        </mxCell>
        <mxCell id="uJpgHnKQdFC738ld5ybK-34" value="&lt;span style=&quot;font-size: 16px;&quot;&gt;Product Categories&lt;/span&gt;" style="text;html=1;align=center;verticalAlign=middle;whiteSpace=wrap;rounded=0;" parent="1" vertex="1">
          <mxGeometry x="991" y="238" width="216" height="40" as="geometry" />
        </mxCell>
        <mxCell id="uJpgHnKQdFC738ld5ybK-35" style="edgeStyle=orthogonalEdgeStyle;rounded=0;orthogonalLoop=1;jettySize=auto;html=1;entryX=1;entryY=0.5;entryDx=0;entryDy=0;" parent="1" source="uJpgHnKQdFC738ld5ybK-32" target="uJpgHnKQdFC738ld5ybK-8" edge="1">
          <mxGeometry relative="1" as="geometry" />
        </mxCell>
        <mxCell id="uJpgHnKQdFC738ld5ybK-39" value="&lt;font style=&quot;font-size: 30px;&quot;&gt;CRM&lt;/font&gt;" style="rounded=1;whiteSpace=wrap;html=1;fillColor=#dae8fc;strokeColor=#6c8ebf;" parent="1" vertex="1">
          <mxGeometry x="291" y="185" width="160" height="50" as="geometry" />
        </mxCell>
        <mxCell id="uJpgHnKQdFC738ld5ybK-41" value="&lt;font style=&quot;font-size: 30px;&quot;&gt;ERP&lt;/font&gt;" style="rounded=1;whiteSpace=wrap;html=1;fillColor=#ffe6cc;strokeColor=#d79b00;" parent="1" vertex="1">
          <mxGeometry x="991" y="185" width="160" height="50" as="geometry" />
        </mxCell>
        <mxCell id="uJpgHnKQdFC738ld5ybK-43" style="edgeStyle=orthogonalEdgeStyle;rounded=0;orthogonalLoop=1;jettySize=auto;html=1;entryX=1;entryY=0.5;entryDx=0;entryDy=0;" parent="1" source="uJpgHnKQdFC738ld5ybK-27" target="uJpgHnKQdFC738ld5ybK-4" edge="1">
          <mxGeometry relative="1" as="geometry" />
        </mxCell>
        <mxCell id="uJpgHnKQdFC738ld5ybK-44" style="edgeStyle=orthogonalEdgeStyle;rounded=0;orthogonalLoop=1;jettySize=auto;html=1;entryX=1;entryY=0.5;entryDx=0;entryDy=0;" parent="1" source="uJpgHnKQdFC738ld5ybK-22" target="uJpgHnKQdFC738ld5ybK-4" edge="1">
          <mxGeometry relative="1" as="geometry" />
        </mxCell>
      </root>
    </mxGraphModel>
  </diagram>
</mxfile>
